<mxfile host="65bd71144e">
    <diagram id="1eutqer51BgRqS3sxPr5" name="Page-1">
        <mxGraphModel dx="686" dy="574" grid="1" gridSize="10" guides="1" tooltips="1" connect="1" arrows="1" fold="1" page="1" pageScale="1" pageWidth="827" pageHeight="1169" math="0" shadow="1">
            <root>
                <mxCell id="0"/>
                <mxCell id="1" parent="0"/>
                <mxCell id="16" value="" style="edgeStyle=none;html=1;sketch=1;" edge="1" parent="1" source="10" target="14">
                    <mxGeometry relative="1" as="geometry"/>
                </mxCell>
                <mxCell id="10" value="&lt;b&gt;Start&lt;/b&gt;" style="rounded=1;whiteSpace=wrap;html=1;shadow=0;sketch=1;strokeColor=#FFFFFF;fillColor=none;gradientColor=none;gradientDirection=radial;" vertex="1" parent="1">
                    <mxGeometry x="260" y="60" width="120" height="60" as="geometry"/>
                </mxCell>
                <mxCell id="12" value="&lt;b&gt;Stop&lt;/b&gt;" style="rounded=1;whiteSpace=wrap;html=1;shadow=0;sketch=1;strokeColor=#FFFFFF;fillColor=none;gradientColor=none;gradientDirection=radial;" vertex="1" parent="1">
                    <mxGeometry x="260" y="370" width="120" height="60" as="geometry"/>
                </mxCell>
                <mxCell id="17" value="" style="edgeStyle=none;html=1;sketch=1;" edge="1" parent="1" source="14" target="15">
                    <mxGeometry relative="1" as="geometry"/>
                </mxCell>
                <mxCell id="14" value="&lt;i&gt;firstName&lt;/i&gt; = &quot;Max&quot;" style="rounded=0;whiteSpace=wrap;html=1;shadow=0;sketch=1;strokeColor=#FFFFFF;fillColor=none;gradientColor=none;gradientDirection=radial;" vertex="1" parent="1">
                    <mxGeometry x="235" y="160" width="170" height="60" as="geometry"/>
                </mxCell>
                <mxCell id="18" value="" style="edgeStyle=none;html=1;sketch=1;" edge="1" parent="1" source="15" target="12">
                    <mxGeometry relative="1" as="geometry"/>
                </mxCell>
                <mxCell id="15" value="Ausgabe &lt;i&gt;firstName&lt;/i&gt;" style="shape=parallelogram;perimeter=parallelogramPerimeter;whiteSpace=wrap;html=1;fixedSize=1;shadow=0;sketch=1;strokeColor=#FFFFFF;fillColor=none;gradientColor=none;gradientDirection=radial;" vertex="1" parent="1">
                    <mxGeometry x="215" y="270" width="210" height="60" as="geometry"/>
                </mxCell>
            </root>
        </mxGraphModel>
    </diagram>
</mxfile>